<?xml version="1.0" encoding="UTF-8" standalone="no"?>
<!DOCTYPE svg PUBLIC "-//W3C//DTD SVG 1.1//EN" "http://www.w3.org/Graphics/SVG/1.1/DTD/svg11.dtd">
<svg width="100%" height="100%" viewBox="0 0 32 32" version="1.1" xmlns="http://www.w3.org/2000/svg" xmlns:xlink="http://www.w3.org/1999/xlink" xml:space="preserve" xmlns:serif="http://www.serif.com/" style="fill-rule:evenodd;clip-rule:evenodd;stroke-linejoin:round;stroke-miterlimit:2;">
    <g transform="matrix(1,0,0,1,0.703297,1.12944)">
        <path d="M8.667,5.035L8.667,3.476C8.667,3.2 8.891,2.976 9.167,2.976L12.207,2.976C12.446,1.503 13.723,0.376 15.257,0.376C16.796,0.376 18.076,1.503 18.316,2.976L21.356,2.976C21.633,2.976 21.856,3.2 21.856,3.476L21.856,5.035L25.837,5.035C26.113,5.035 26.337,5.259 26.337,5.535L26.337,28.865C26.337,29.141 26.113,29.365 25.837,29.365L4.757,29.365C4.481,29.365 4.257,29.141 4.257,28.865L4.257,5.535C4.257,5.259 4.481,5.035 4.757,5.035L8.667,5.035ZM8.667,7.173L8.667,6.035L5.257,6.035L5.257,28.365L25.337,28.365L25.337,6.035L21.857,6.035L21.857,7.173L23.235,7.173C23.511,7.173 23.735,7.396 23.735,7.673L23.735,27.331C23.735,27.607 23.511,27.831 23.235,27.831L7.36,27.831C7.083,27.831 6.86,27.607 6.86,27.331L6.86,7.673C6.86,7.396 7.083,7.173 7.36,7.173L8.667,7.173ZM7.86,26.831L22.735,26.831L22.735,8.173L7.86,8.173L7.86,26.831ZM20.641,23.76L9.953,23.76C9.677,23.76 9.453,23.536 9.453,23.26C9.453,22.984 9.677,22.76 9.953,22.76L20.641,22.76C20.917,22.76 21.141,22.984 21.141,23.26C21.141,23.536 20.917,23.76 20.641,23.76ZM15.283,10.071C15.287,10.07 15.292,10.07 15.297,10.07C15.301,10.07 15.306,10.07 15.311,10.071L16.11,10.071C16.386,10.071 16.61,10.295 16.61,10.571C16.61,10.847 16.386,11.071 16.11,11.071L15.797,11.071L15.797,11.236C16.433,11.324 17.019,11.575 17.508,11.947L17.627,11.828L17.405,11.607C17.21,11.412 17.21,11.095 17.405,10.9C17.6,10.705 17.917,10.705 18.112,10.9L19.263,12.05C19.458,12.246 19.458,12.562 19.263,12.758C19.165,12.855 19.037,12.904 18.909,12.904C18.781,12.904 18.653,12.855 18.555,12.758L18.334,12.536L18.215,12.655C18.587,13.144 18.838,13.729 18.926,14.365L19.092,14.365L19.092,14.052C19.092,13.776 19.316,13.552 19.592,13.552C19.868,13.552 20.092,13.776 20.092,14.052L20.092,15.679C20.092,15.955 19.868,16.179 19.592,16.179C19.316,16.179 19.092,15.955 19.092,15.679L19.092,15.365L18.926,15.365C18.838,16.002 18.587,16.587 18.215,17.077L18.334,17.195L18.556,16.974C18.751,16.779 19.068,16.779 19.263,16.974C19.458,17.169 19.458,17.486 19.263,17.681L18.699,18.245C18.695,18.249 18.692,18.253 18.688,18.257C18.684,18.26 18.681,18.263 18.677,18.267L18.113,18.832C18.015,18.929 17.887,18.978 17.759,18.978C17.631,18.978 17.503,18.929 17.405,18.832C17.21,18.636 17.21,18.32 17.405,18.124L17.626,17.902L17.508,17.784C17.019,18.156 16.434,18.407 15.797,18.494L15.797,18.66L16.11,18.66C16.386,18.66 16.61,18.884 16.61,19.16C16.61,19.436 16.386,19.66 16.11,19.66L14.483,19.66C14.207,19.66 13.983,19.436 13.983,19.16C13.983,18.884 14.207,18.66 14.483,18.66L14.797,18.66L14.797,18.494C14.16,18.407 13.575,18.156 13.086,17.784L12.967,17.902L13.189,18.124C13.384,18.32 13.384,18.636 13.189,18.832C13.091,18.929 12.963,18.978 12.835,18.978C12.707,18.978 12.579,18.929 12.481,18.832L11.917,18.268C11.913,18.264 11.91,18.26 11.906,18.257C11.901,18.252 11.897,18.248 11.893,18.244L11.331,17.681C11.136,17.486 11.136,17.169 11.331,16.974C11.526,16.779 11.843,16.779 12.038,16.974L12.259,17.195L12.378,17.077C12.007,16.587 11.755,16.002 11.668,15.365L11.502,15.365L11.502,15.679C11.502,15.955 11.278,16.179 11.002,16.179C10.726,16.179 10.502,15.955 10.502,15.679L10.502,14.875C10.502,14.872 10.502,14.869 10.502,14.865C10.502,14.862 10.502,14.859 10.502,14.855L10.502,14.052C10.502,13.776 10.726,13.552 11.002,13.552C11.278,13.552 11.502,13.776 11.502,14.052L11.502,14.365L11.668,14.365C11.755,13.729 12.007,13.144 12.378,12.654L12.26,12.536L12.038,12.758C11.94,12.855 11.812,12.904 11.684,12.904C11.556,12.904 11.428,12.855 11.33,12.758C11.135,12.562 11.135,12.246 11.33,12.05L12.481,10.9C12.676,10.705 12.993,10.705 13.188,10.9C13.383,11.095 13.383,11.412 13.188,11.607L12.967,11.828L13.086,11.947C13.575,11.575 14.16,11.324 14.797,11.236L14.797,11.071L14.483,11.071C14.207,11.071 13.983,10.847 13.983,10.571C13.983,10.295 14.207,10.071 14.483,10.071L15.283,10.071ZM17.173,12.977C16.692,12.498 16.028,12.202 15.297,12.202C14.566,12.202 13.904,12.498 13.422,12.975C13.42,12.978 13.417,12.981 13.414,12.983C13.412,12.986 13.41,12.988 13.407,12.99C12.929,13.472 12.634,14.135 12.634,14.865C12.634,16.334 13.828,17.528 15.297,17.528C16.766,17.528 17.96,16.334 17.96,14.865C17.96,14.134 17.663,13.47 17.184,12.988L17.173,12.977ZM20.856,7.105L20.856,3.976L17.856,3.976C17.58,3.976 17.356,3.752 17.356,3.476C17.356,2.318 16.415,1.376 15.257,1.376C14.104,1.376 13.167,2.318 13.167,3.476C13.167,3.752 12.943,3.976 12.667,3.976L9.667,3.976L9.667,7.105L20.856,7.105Z" style="fill-rule:nonzero;"/>
    </g>
</svg>
