<svg xmlns="http://www.w3.org/2000/svg" width="16" height="16" viewBox="0 0 16 16">
  <g id="MDI_seal" data-name="MDI / seal" transform="translate(-0.002)">
    <g id="Boundary" transform="translate(0.002)" fill="#7c7c7c" stroke="rgba(0,0,0,0)" stroke-width="1" opacity="0">
      <rect width="16" height="16" stroke="none"/>
      <rect x="0.5" y="0.5" width="15" height="15" fill="none"/>
    </g>
    <path id="Path_seal" data-name="Path / seal" d="M14.8,13.58l-2.673-.913-.92,2.667-2.053-4-1.947,4-.92-2.667L3.61,13.58l1.947-4a4.667,4.667,0,1,1,7.293,0l1.947,4M5.87,6.667l1.793.893-.127,2L9.2,8.453l1.667,1.1L10.757,7.56l1.78-.893-1.787-.9.12-1.987L9.2,4.873,7.537,3.767,7.65,5.773Z" transform="translate(-0.944 -0.667)" fill="#7c7c7c"/>
  </g>
</svg>
