<svg xmlns="http://www.w3.org/2000/svg" width="6.978" height="9.304" viewBox="0 0 6.978 9.304">
  <path id="Icon_awesome-file-powerpoint" data-name="Icon awesome-file-powerpoint" d="M3.52,4.928a.466.466,0,0,1,.369.147.668.668,0,0,1,0,.8.482.482,0,0,1-.383.154H3.013v-1.1H3.52Zm3.331-3.02L5.07.127A.436.436,0,0,0,4.761,0H4.652V2.326H6.978V2.215A.435.435,0,0,0,6.851,1.908Zm-2.78.563V0H.436A.435.435,0,0,0,0,.436V8.868A.435.435,0,0,0,.436,9.3H6.542a.435.435,0,0,0,.436-.436V2.907H4.506A.437.437,0,0,1,4.07,2.471Zm.963,3c0,1.641-1.614,1.41-2.019,1.41V7.923a.219.219,0,0,1-.218.218h-.56a.219.219,0,0,1-.218-.218V4.292a.219.219,0,0,1,.218-.218H3.709A1.3,1.3,0,0,1,5.033,5.473Z" fill="#fff"/>
</svg>
